/* XPM */
static char *result[] = {
/* columns rows colors chars-per-pixel */
"64 64 198 2 ",
"   c #2D0F00",
".  c #351E01",
"X  c #4C2C00",
"o  c #4D3201",
"O  c #523702",
"+  c #543901",
"@  c #5D3C00",
"#  c #5B4002",
"$  c #624502",
"%  c #644901",
"&  c #6C4C00",
"*  c #684200",
"=  c #724D00",
"-  c #6C5504",
";  c #755402",
":  c #7B5901",
">  c #795904",
",  c #76750E",
"<  c #6D7513",
"1  c #737F14",
"2  c #825D02",
"3  c #8F6600",
"4  c #806E08",
"5  c #896706",
"6  c #987404",
"7  c #997A13",
"8  c #947510",
"9  c #88720F",
"0  c #A17300",
"q  c #67871C",
"w  c #7EB125",
"e  c #8E840B",
"r  c #98910E",
"t  c #808211",
"y  c #AD8B05",
"u  c #B78E05",
"i  c #BD9601",
"p  c #BA9C1A",
"a  c #86A91F",
"s  c #A6A711",
"d  c #BFA01D",
"f  c #B6B412",
"g  c #ABB517",
"h  c #AB9126",
"j  c #86B223",
"k  c #8ABD26",
"l  c #85BA27",
"z  c #95BC21",
"x  c #BCA22D",
"c  c #C49C08",
"v  c #D69D00",
"b  c #CAA101",
"n  c #C6A20E",
"m  c #D4A501",
"M  c #DAA300",
"N  c #D4AE06",
"B  c #DAAB03",
"V  c #DAAC09",
"C  c #D9A70F",
"Z  c #D7B007",
"A  c #DBB204",
"S  c #D7B008",
"D  c #DBB30C",
"F  c #C1A118",
"G  c #DAB615",
"H  c #E2AE01",
"J  c #E4B402",
"K  c #E9B600",
"L  c #E1B807",
"P  c #ECBC01",
"I  c #E5B90A",
"U  c #F3BE00",
"Y  c #E2B514",
"T  c #E4BE15",
"R  c #E8BF10",
"E  c #E2BB18",
"W  c #DABB23",
"Q  c #CBB238",
"!  c #E8BF23",
"~  c #ABC21D",
"^  c #B5CC1D",
"/  c #BAC316",
"(  c #8ACA2B",
")  c #9FCF27",
"_  c #94C928",
"`  c #8ED72E",
"'  c #8FD82F",
"]  c #89D62A",
"[  c #91D62E",
"{  c #9BD32A",
"}  c #90D82F",
"|  c #9FD62B",
" . c #87D830",
".. c #8BD931",
"X. c #91DC30",
"o. c #9CDA39",
"O. c #A5D226",
"+. c #A4D429",
"@. c #BDD528",
"#. c #A2DC3F",
"$. c #92E132",
"%. c #C3C30B",
"&. c #D4C10F",
"*. c #C7CB16",
"=. c #C7CA17",
"-. c #D8C911",
";. c #DCD117",
":. c #EFC80F",
">. c #E7C705",
",. c #F3C301",
"<. c #FAC300",
"1. c #F6CA03",
"2. c #FBCC03",
"3. c #F2C70C",
"4. c #F5CC0B",
"5. c #FACD0B",
"6. c #FDD305",
"7. c #FDD10E",
"8. c #FCD70A",
"9. c #E4C21D",
"0. c #EEC816",
"q. c #F4CB13",
"w. c #FDCF10",
"e. c #F4CD18",
"r. c #F4C71A",
"t. c #FED513",
"y. c #F1D41C",
"u. c #FDD61B",
"i. c #FFDC1D",
"p. c #FFE31E",
"a. c #DEC225",
"s. c #C8D829",
"d. c #DDD522",
"f. c #D8D728",
"g. c #D0D320",
"h. c #DBC33C",
"j. c #EAC424",
"k. c #EECA2A",
"l. c #E8C52B",
"z. c #F2CD23",
"x. c #F7CB27",
"c. c #FBD422",
"v. c #FEDB24",
"b. c #FEDD2B",
"n. c #F3D326",
"m. c #EFCD32",
"M. c #F2CF31",
"N. c #E8D03C",
"B. c #FCDE33",
"V. c #F9DE39",
"C. c #F7D236",
"Z. c #D1E237",
"A. c #FFE324",
"S. c #FEE52A",
"D. c #FFEA2C",
"F. c #FDE235",
"G. c #FFEC35",
"H. c #FDE33C",
"J. c #FFEC3E",
"K. c #FFF03D",
"L. c #CBBA54",
"P. c #DDCD4B",
"I. c #E5CE42",
"U. c #EED641",
"Y. c #F7DD49",
"T. c #E7D858",
"R. c #F4DC5A",
"E. c #FDE443",
"W. c #FFE944",
"Q. c #FDE64B",
"!. c #FEEB4B",
"~. c #F0E945",
"^. c #FFF241",
"/. c #FEEB53",
"(. c #FDED5B",
"). c #F5E359",
"_. c #FFF157",
"`. c #E5D866",
"'. c #F7DB62",
"]. c #FCEB63",
"[. c #F5E46E",
"{. c #FAE26E",
"}. c #F8E767",
"|. c #FEF065",
" X c #FFF26B",
".X c #FFF968",
"XX c #EEE675",
"oX c #F8E977",
"OX c #FEF375",
"+X c #FCF37A",
"@X c #FCEF8E",
"#X c #FFFC83",
"$X c #FEF385",
"%X c #FDEE97",
"&X c #FDF39B",
"*X c #FDEFA7",
"=X c #FCF0A3",
"-X c #FCF7B9",
/* pixels */
"' ' ' ' ' ' ' ' ' ' ' ' ' ' ' ' ' ' ' ' ' ' ' ' ' ' ' ' ' ' ' ' ' ' ' ' ' ' ' ' ' ' ' ' ' ' ' ' ' ' ' ' ' ' ' ' ' ' ' ' ' ' ' ' ",
"' ' ' ' ' ' ' ' ' ' ' ' ' ' ' ' ' ' ' ' ' ' ' ' ' ' ' ' ' ' ' ' ' ' ' ' ' ' ' ' ' ' ' ' ' ' ' ' ' ' ' ' ' ' ' ' ' ' ' ' ' ' ' ' ",
"' ' ' ' ' ' ' ' ' ' ' ' ' ' ' ' ' ' ' ' ' ' ' ' ' ' ' ' ' ' ' ' ' ' ' ' ' ' ' ' ' ' ' ' ' ' ' ' ' ' ' ' ' ' ' ' ' ' ' ' ' ' ' ' ",
"' ' ' ' ' ' ' ' ' ' ' ' ' ' ' ' ' ' ' ' ' ' ' ' ' ' ' ' ' ' ' ' ' ' ' ' ' ' ' ' ' ' ' ' ' ' ' ' ' ' ' ' ' ' ' ' ' ' ' ' ' ' ' ' ",
"' ' ' ' ' ' ' ' ' ' ' ' ' ' ' ' ' ' ' ' ' ' ' ' ' ' ' ' ' ' ' ' ' ' ' ' ' ' ' ' ' ' ' ' ' ' ' ' ' ' ' ' ' ' ' ' ' ' ' ' ' ' ' ' ",
"' ' ' ' ' ' ' ' ' ' ' ' ' ' ' ' ' ' ' ' ' ' ' ' ' ' ' ' ' ' ' ' ' ' ' ' ' ' ' ' ' ' ' ' ' ' ' ' ' ' ' ' ' ' ' ' ' ' ' ' ' ' ' ' ",
"' ' ' ' ' ' ' ' ' ' ' ' ' ' ' ' ' ' ' ' ' ' ' ' ' ' ' ' ' ' ' ' ' ' ' ' ' ' ' ' ' ' ' ' ' ' ' ' ' ' ' ' ' ' ' ' ' ' } ' ' ' ' ' ",
"' ' ' ' ' ' ' ' ' ' ' ' ' ' ' ' ' ' ' ' ' ' ' ' ' ' ' ' ' ' ' ' ' ' ' ' ' ' ' ' ' ' ' ' ' ' ' ' ' ' ' ' ' ' ' ' ' ' ' ' ' ' ' ' ",
"' ' ' ' ' ' ' ' ' ' ' ' ' ' ' ' ' ' ' ' ' ' ' ' ' ' ' ' ' ' ' ' ' ' ' ' ' ' ' ' ' ' ' ' ' ' ' ' ' ' ' ' ' ' ' ' ' ' ' ' ' ' ' ' ",
"' ' ' ' ' ' ' ' ' ' ' ' ' ' ' ' ' ' ' ' ' ' ' ' ' ' ' ' ' ' ' ' ' ' ' ' ' ' ' ' ' ' ' ' ' ' ' ' ' ' ' ' ' ' ' ' ' ' ' ' ' ' ' ' ",
"' ' ' ' ' ' ' ' ' ' ' ' ' ' ' ' ' ' ' ' ' ' ' ' ' ' ' ' ' ' ' ' ' ' ' ' ' ' ' ' ' ' ' ' ' ' ' ' ' ' ' ' ' ' ' ' ' ' ' ' ' ' ' ' ",
"' ' ' ' ' ' ' ' ' ' ' ' ' ' ' ' ' ' ' ' ' ' ' ' ' ' ' ' ' ' ' ' ' ' ' ' ' ' ' ' ' ' ' ' ' ' ' ' ' ' ' ' ' ' ' ' ' ' ' ' ' ' ' ' ",
"' ' ' ' ' ' ' ' ' ' ' ' ' ' ' ' ' ' ' ' ' ' ' ' ' ' ' ' ' ' ' ' ' ' ' ' ' ' ' ' ' ' ' ' ' ' ' ' ' ' ' ' ' ' ' ' ' ' ' ' ' ' ' ' ",
"' ' ' ' ' ' ' ' ' ' ' ' ' ' ' ' ' ' ' ' ' ' ' ' ' ' ' ' ' ' ' ' ' ' ' ' ' ' ' ' ' ' ' ' ' ' ' ' ' ' ' ' ' ' ' ' ' ' ' ' ' ' ' ' ",
"' ' ' ' ' ' ' ' ' ' ' ' ' ' ' ' ' ' ' ' ' ' ' ' ' ' ' ' ' ' ' ` ' ' ' ' ' ' ' ' ' ' ' ' ' ' ' ' ' ' ' ' ' ' ' ' ' ' ' ' ' ' ' ' ",
"' ' ' ' ' ' ' ' ' ' ' ' ' ' ' ' ' ' ' ' ' ' ' ' ' ' ' ' ' } ..` ' ' ' ' ' ' ' ' ' ' ' ' ' ' ' ' ' ' ' ' ' ' ' ' ' ' ' ' ' ' ' ' ",
"' } ' ' ' ' ' ' ' ' ' ' ' ' ' ' ' ' ' ' ' ' ' ' ' ' } ' ' ] ` ` ' ' ' ' } ' ' ' ' ' ' ' ' ' ' ' ' ' ' ' ' ' ' ' ' ' ' ' ' ' ' ' ",
"' ' ' ' ' ' ' ' ' ' ' ' ' ' ' ' ' ' ' ' ' ' ' ' ' } `  .} o.#.o.[ ] ` ....} ' ' ' ' ' ' ' ' ' ' ' ' ' ' ' ' ' ' ' ' ' ' ' ' ' ' ",
"' ' ' ' ' ' ' ' ' ' ' ' ' ' ' ' ' ' ' ' ' } ' ' '  .| Z.~./.|. XXXT.G %.O...' } ' ' ' ' ' ' ' ' ' ' ' ' ' ' ' ' ' ' ' ' ' ' ' ' ",
"' ' ' ' ' ' ' ' ' ' ' ' ' ' ' ' ' ' ' ' ' } } .. .@.J.Q.!.!.!.!.(.+X%Xx.U -.| ..} ' ' ' ' ' ' ' ' ' ' ' ' ' ' ' ' ' ' ' ' ' ' ' ",
"' ' ' ' ' ' ' ' ' ' ' ' ' ' ' ' ' ' ' ' ' } } ] s.F.J.^.H.H.E.!._.!.|.-XC.<.3.O...' ' ' ' ' ' ' ' ' ' ' ' ' ' ' ' ' ' ' ' ' ' ' ",
"' ' ' ' ' ' ' ' ' ' ' ' ' ' ' ' ' ' ' ' ' } ..@.b.J.B.d h Q h.h.N.!.!._.-Xc.<.,.O...' ' ' ' ' ' ' ' ' ' ' ' ' ' ' ' ' ' ' ' ' ' ",
"' ' ' ' ' ' ' ' ' ' ' ' ' ' ' ' ' ' ' ' ' ..+.c.G.a.7 L.+X#X#X+XT.h.!.!.OX*X5.2.>.} ' ' ' ' ' ' ' ' ' ' ' ' ' ' ' ' ' ' ' ' ' ' ",
"' ' ' ' ' ' ' ' ' ' ' ' ' ' ' ' ' ' ' ' ' ..d.S.a.9 `.#X+XXX[.+X#XXXI.!.W.=X'.5.5.*. .} ' ' ' ' ' ' ' ' ' ' ' ' ' ' ' ' ' ' ' ' ",
"' ' ' ' ' ' ' ' ' ' ' ' ' ' ' ' ' ' ' } ..+.i.v.6 P..X.Xx 8 W T.#X#XXXU.!./.=XC.x.q.{ ....X.' ' ' ' ' ' ' ' ' ' ' ' ' ' ' ' ' ' ",
"' ' ' ' ' ' ' ' ' ' ' ' ' ' ' ' ' ' ' } ..=.A.n p J.E.(.l.D ^.(.+X+X+X}.H.W.@XR.x.r.*. .} ' ' ' ' ' ' ' ' ' ' ' ' ' ' ' ' ' ' ' ",
"' ' ' ' ' ' ' ' ' ' ' ' ' ' ' ' ' ' ' ' } y.u.y y.b.b.!.n.L W./.OXOXOX+XY.J.].oXk.r.-.' ' } ' ' ' ' ' ' ' ' ' ' ' ' ' ' ' ' ' ' ",
"' ' ' ' ' ' ' ' ' ' ' ' ' ' ' ' ' ' ' ..+.i.0.n i.u.v.J.k.A J.~.|. XOXOX).V.W.oXj.:.J ) ..} ' ' ' ' ' ' ' ' ' ' ' ' ' ' ' ' ' ' ",
"' ' ' ' ' ' ' ' ' ' ' ' ' ' ' ' ' ' }  .@.A.D G p.u.u.F.j.L G.E.(.(.]. X].V.H.}.G A B ~ ..} ' ' ' ' ' ' ' ' ' ' ' ' ' ' ' ' ' ' ",
"' ' ' ' ' ' ' ' ' ' ' ' ' ' ' ' ' ' '  .s.b.I e.v.v.v.F.j.L G.F.Q./.(.(.(.V.V./.G b c g ..} ' ' } ' ' ' ' ' ' ' ' ' ' ' ' ' ' ' ",
"' ' ' ' ' ' ' ' ' ' ' ' ' ' ' ' ' ' }  .f.b.3.u.v.v.v.J.9.L D.F.E.W./././.V.F.E.C i i s $.' ' ' ' ' ' ' ' ' ' ' ' ' ' ' ' ' ' ' ",
"' ' ' ' ' ' ' ' ' ' ' ' ' ' ' ' ' ' ' ` d.v.n.7.t.i.v.F.T A D.F.E.E.Q.W./.V.F.b.c 6 0 r ..' ' ' ' ' ' ' ' ' ' ' ' ' ' ' ' ' ' ' ",
"' ' ' ' ' ' ' ' ' ' ' ' ' ' ' ' ' ' } ' ;.u.H.2.2.2.7.b.G Z D.B.Q.E.E.E.E.V.H.b.6 & & , ' ' ' ' ' ' ' ' ' ' ' ' ' ' ' ' ' ' ' ' ",
"' ' ' ' ' ' ' ' ' ' ' ' ' ' ' ' ' ' '  .-.5.(.5.,.1.2.t.D Z S.B.V.E.E.E.E.V.E.x.> # @ < X.' ' ' ' ' ' ' ' ' ' ' ' ' ' ' ' ' ' ' ",
"' ' ' ' ' ' ' ' ' ' ' ' ' ' ' ' ' ' [ ..*.2.{.y.,.,.,.6.D Z S.i.b.B.V.E.H.B.W.a.@ o X < $.' ' ' ' ' ' ' ' ' ' ' ' ' ' ' ' ' ' ' ",
"' ' ' ' ' ' ' ' ' ' ' ' ' ' ' ' ' ' X...^ <.}.C.K K P 1.B Z A.4.5.u.v.B.B.B.J.p . .   q $.' ' ' ' ' ' ' ' ' ' ' ' ' ' ' ' ' ' ' ",
"' ' ' ' ' ' ' ' ' ' ' ' ' ' ' ' ' ' } ..) <.Y.'.J H K U B N A.4.1.2.7.t.c.b.F.7 X + X w } ' ' ' ' ' ' ' ' ' ' ' ' ' ' ' ' ' ' ' ",
"' ' ' ' ' ' ' ' ' ' ' ' ' ' ' ' ' ' ' ' } >.5.%XI H H K m N A.4.,.1.2.7.t.v.n.; % % - ' } ' ' ' ' ' ' ' ' ' ' ' ' ' ' ' ' ' ' ' ",
"' ' ' ' ' ' ' ' ' ' ' ' ' ' ' ' ' ' ' } ..=.U {.'.M V H B N p.3.P ,.,.2.7.p.n + % @ q $.' ' ' ' ' ' ' ' ' ' ' ' ' ' ' ' ' ' ' ' ",
"' ' ' ' ' ' ' ' ' ' ' ' ' ' ' ' ' ' ' } ..) ,.3.&X! v V R.Q.W.0.K ,.,.6.t.t.> # = = k $.' ' ' ' ' ' ' ' ' ' ' ' ' ' ' ' ' ' ' ' ",
"' ' ' ' ' ' ' ' ' ' ' ' ' ' ' ' ' ' ' ' } ..&.,.M.@XY v C Y Y I J P 1.7.8.n O > = q | [ ' ' ' ' ' ' ' ' ' ' ' ' ' ' ' ' ' ' ' ' ",
"' ' ' ' ' ' ' ' ' ' ' ' ' ' ' ' ' ' ' ' } ..{ P ,.M.oXk.v v v B I 4.1.6.4.# & ; > ( } } ' ' ' ' ' ' ' ' ' ' ' ' ' ' ' ' ' ' ' ' ",
"' ' ' ' ' ' ' ' ' ' ' ' ' ' ' ' ' ' ' ' ' ' ..^ <.,.r.Y.Y.m.k.z.8.1.1.8.5 @ : = j $.} } ' ' ' ' ' ' ' ' ' ' ' ' ' ' ' ' ' ' ' ' ",
"' ' ' ' ' ' ' ' ' ' ' ' ' ' ' ' ' ' ' ' ' ' ' ../ U ,.U ,.q.5.,.,.6.6.3 + : ; a $.' } } ' ' ' ' ' ' ' ' ' ' ' ' ' ' ' ' ' ' ' ' ",
"' ' ' ' ' ' ' ' ' ' ' ' ' ' ' ' ' ' ' ' ' ' ' '  .~ K <.<.,.2.2.6.A 5 * 3 9 ( } ` ' ' ' ' ' ' ' ' ' ' ' ' ' ' ' ' ' ' ' ' ' ' ' ",
"' ' ' ' ' ' ' ' ' ' ' ' ' ' ' ' ' ' ' ' ' ' ' ' } .._ f Z B m b y , e s z ' ' ' ' ' ' ' } ' ' ' ' ' } ' ' ' ' ' ' ' ' ' ' ' ' ' ",
"' ' ' ' ' ' ' ' ' ' ' ' ' ' ' ' ' ' ' ' ' ' ' ' ' } .. .] k j l ( [ $.' $.' ' ' ' ' ' ' ' ' ' ' ' ' ' ' ' ' ' ' ' ' ' ' ' ' ' ' ",
"' ' ' ' ' ' ' ' ' ' ' ' ' ' ' ' ' ' ' ' ' ' ' ' } } } ' X.X.X.X.[ ` [ [ ] ' ' ' ' ' ' ' ' ' ' ' ' ' ' ' ' ' ' ' ' ' ' ' ' ' ' ' ",
"' ' ' ' ' ' ' ' ' ' ' ' ' ' ' ' ' ' ' ' ' ' ' ' ' ' ' ' ' ' ' ' ' ' ' ' ' ' ' ' ' ' ' ' ' ' ' ' ' ' ' ' ' ' ' ' ' ' ' ' ' ' ' ' ",
"' ' ' ' ' ' ' ' ' ' ' ' ' ' ' ' ' ' ' ' ' ' ' ' ' ' ' ' ' ' ' ' ' ' ' ' ' ' ' ' ' ' ' ' ' ' ' ' ' ' ' ' ' ' ' ' ' ' ' ' ' ' ' ' ",
"' ' ' ' ' ' ' ' ' ' ' ' ' ' ' ' ' ' ' ' ' ' ' ' ' ' ' ' ' ' ' ' ' ' ' ' ' ' ' ' ' ' ' ' ' ' ' ' ' ' ' ' ' ' ' ' ' ' ' ' ' ' ' ' ",
"' ' ' ' ' ' ' ' ' ' ' ' ' ' ' ' ' ' ' ' ' ' ' ' ' ' ' ' } ' ' ' ' ' ' ' ' ' ' ' ' ' ' ' ' ' ' ' ' ' ' ' ' ' ' ' ' ' ' ' ' ' ' ' ",
"' ' ' ' ' ' ' ' ' ' ' ' ' ' ' ' ' ' ' ' ' ' ' ' ' ' ' ' ' ' ' ' ' ' ' ' ' ' ' ' ' ' ' ' ' ' ' ' ' ' ' ' ' ' ' ' ' ' ' ' ' ' ' ' ",
"' ' ' ' ' ' ' ' ' ' ' ' ' ' ' ' ' ' ' ' ' ' ' ' ' ' ' ' ' ' ' ' ' ' ' ' ' ' ' ' ' ' ' } ' ' ' ' ' ' ' ' ' ' ' ' ' ' ' ' ' ' ' ' ",
"' ' ' ' ' ' ' ' ' ' ' ' ' ' ' ' ' ' ' ' ' ' ' ' ' ' ' ' ' ' ' ' ' ' ' ' ' ' ' ' ' ' ' ' ' ' ' ' ' ' ' ' ' ' ' ' ' ' ' ' ' ' ' ' ",
"' ' ' ' ' ' ' ' ' ' ' ' ' ' ' ' ' ' ' ' ' ' ' ' ' ' ' ' ' ' ' ' ' ' ' ' ' ' ' ' ' ' ' ' ' ' ' ' ' ' ' ' ' ' ' ' ' ' ' ' ' ' ' ' ",
"' ' ' ' ' ' ' ' ' ' ' ' ' ' ' ' ' ' ' ' ' ' ' ' ' ' ' ' ' ' ' ' ' ' ' ' ' ' ' ' ' ' ' ' ' ' ' ' ' ' ' ' ' ' ' ' ' ' ' ' ' ' ' ' ",
"' ' ' ' ' ' ' ' ' ' ' ' ' ' ' ' ' ' ' ' ' ' ' ' ' ' ' ' ' ' ' ' ' ' ' ' ' ' ' ' ' ' ' ' ' ' ' ' ' ' ' ' ' ' ' ' ' ' ' ' ' ' ' ' ",
"' ' ' ' ' ' ' ' ' ' ' ' ' ' ' ' ' ' ' ' ' ' ' ' ' ' ' ' ' ' ' ' ' ' ' ' ' ' ' ' ' ' ' ' ' ' ' ' ' ' ' ' ' ' ' ' ' ' ' ' ' ' ' ' ",
"' ' ' ' ' ' ' ' ' ' ' ' ' ' ' ' ' ' ' ' ' ' ' ' ' ' ' ' ' ' ' ' ' ' ' ' ' ' ' ' ' ' ' ' ' ' ' ' ' ' ' ' ' ' ' ' ' ' ' ' ' ' ' ' ",
"' ' ' ' ' ' ' ' ' ' ' ' ' ' ' ' ' ' ' ' ' ' ' ' ' ' ' ' ' ' ' ' ' ' ' ' ' ' ' ' ' ' ' ' ' ' ' ' ' ' ' ' ' ' ' ' ' ' ' ' ' ' ' ' ",
"' ' ' ' ' ' ' ' ' ' ' ' ' ' ' ' ' ' ' ' ' ' ' ' ' ' ' ' ' ' ' ' ' ' ' ' ' ' ' ' ' ' ' ' ' ' ' ' ' ' ' ' ' ' ' ' ' ' ' ' ' ' ' ' ",
"' ' ' ' ' ' ' ' ' ' ' ' ' ' ' ' ' ' ' ' ' ' ' ' ' ' ' ' ' ' ' ' ' ' ' ' ' ' ' ' ' ' ' ' ' ' ' ' ' ' ' ' ' ' ' ' ' ' ' ' ' ' ' ' ",
"' ' ' ' ' ' ' ' ' ' ' ' ' ' ' ' ' ' ' ' ' ' ' ' ' ' ' ' ' ' ' ' ' ' ' ' ' ' ' ' ' ' ' ' ' ' ' ' ' ' ' ' ' ' ' ' ' ' ' ' ' ' ' ' "
};
