/* XPM */
static char *result[] = {
/* columns rows colors chars-per-pixel */
"64 64 232 2 ",
"   c #010000",
".  c #0B0401",
"X  c #1B0B02",
"o  c #130701",
"O  c #1F1005",
"+  c #240D02",
"@  c #290E02",
"#  c #330D02",
"$  c #3C0D01",
"%  c #251205",
"&  c #2D1103",
"*  c #331403",
"=  c #3C1604",
"-  c #3E1905",
";  c #351906",
":  c #441401",
">  c #491401",
",  c #441B05",
"<  c #4C1C04",
"1  c #521E05",
"2  c #591B04",
"3  c #400A00",
"4  c #671D03",
"5  c #4B2007",
"6  c #562005",
"7  c #5B2205",
"8  c #55220A",
"9  c #5C2C16",
"0  c #632506",
"q  c #692606",
"w  c #6C2906",
"e  c #662807",
"r  c #742504",
"t  c #742B07",
"y  c #7A2E06",
"u  c #7B2E08",
"i  c #772D08",
"p  c #7E3007",
"a  c #7F3008",
"s  c #662918",
"d  c #69351E",
"f  c #683824",
"g  c #76432E",
"h  c #882D05",
"j  c #833107",
"k  c #843208",
"l  c #8B3508",
"z  c #8D3308",
"x  c #913709",
"c  c #953909",
"v  c #9B3B09",
"b  c #993505",
"n  c #813815",
"m  c #A43E0A",
"M  c #A43904",
"N  c #B33D01",
"B  c #B93E05",
"V  c #D41200",
"C  c #C23D00",
"Z  c #DA3914",
"A  c #DB3E22",
"S  c #8B411D",
"D  c #AC410A",
"F  c #A9400A",
"G  c #B54306",
"H  c #B3440B",
"J  c #B9460B",
"K  c #BE490C",
"L  c #B94506",
"P  c #BC4A15",
"I  c #AD471A",
"U  c #874B33",
"Y  c #B6582C",
"T  c #BA6511",
"R  c #C34402",
"E  c #CA4602",
"W  c #C3460A",
"Q  c #C54B0C",
"!  c #CC4D0C",
"~  c #C84805",
"^  c #D24E0C",
"/  c #D84C09",
"(  c #D5510D",
")  c #DC540D",
"_  c #C54E12",
"`  c #CC4D13",
"'  c #C74D1C",
"]  c #D14B15",
"[  c #CD5117",
"{  c #DA5A1B",
"}  c #D5551A",
"|  c #CF500B",
" . c #E3560E",
".. c #E6580E",
"X. c #EB590E",
"o. c #EB5209",
"O. c #F45D0F",
"+. c #F95D0F",
"@. c #ED5D11",
"#. c #F45E10",
"$. c #E54E0D",
"%. c #FF6411",
"&. c #EC631F",
"*. c #DA5823",
"=. c #DB5A34",
"-. c #CD5C35",
";. c #E35920",
":. c #CA6D2B",
">. c #DD6326",
",. c #DC653D",
"<. c #DA6637",
"1. c #C6782C",
"2. c #E66937",
"3. c #985B46",
"4. c #835240",
"5. c #A86C57",
"6. c #BC785F",
"7. c #966D67",
"8. c #9B726A",
"9. c #A3756A",
"0. c #A6796F",
"q. c #A47B73",
"w. c #B37863",
"e. c #946150",
"r. c #DE6945",
"t. c #DB7347",
"y. c #CC734E",
"u. c #E26745",
"i. c #E37C53",
"p. c #E5744C",
"a. c #EA7A67",
"s. c #558C1F",
"d. c #7B9B21",
"f. c #749821",
"g. c #6C9520",
"h. c #63A326",
"j. c #6AA627",
"k. c #7AAC27",
"l. c #819F1D",
"z. c #80A01D",
"x. c #829E21",
"c. c #82AF27",
"v. c #89A624",
"b. c #97A623",
"n. c #86B127",
"m. c #8DB327",
"M. c #93B527",
"N. c #9DB927",
"B. c #9CBA2A",
"V. c #98B727",
"C. c #A3AA23",
"Z. c #AAAD24",
"A. c #A1BB27",
"S. c #A2BB28",
"D. c #A9B334",
"F. c #EB9F36",
"G. c #E6A536",
"H. c #89D624",
"J. c #86DA24",
"K. c #89D927",
"L. c #8ED62E",
"P. c #8FD82F",
"I. c #87D521",
"U. c #90D72F",
"Y. c #90D82F",
"T. c #8CDE31",
"R. c #91D731",
"E. c #91D932",
"W. c #98DC3C",
"Q. c #A1CD30",
"!. c #AFC633",
"~. c #8DE131",
"^. c #93E231",
"/. c #99E531",
"(. c #92E13B",
"). c #8CE62E",
"_. c #E5845C",
"`. c #DD8869",
"'. c #C98670",
"]. c #C89A75",
"[. c #D48F74",
"{. c #E48E6E",
"}. c #E78964",
"|. c #E4926C",
" X c #E79875",
".X c #F29C7D",
"XX c #F0907D",
"oX c #EA8B74",
"OX c #DCA877",
"+X c #CDB97A",
"@X c #D0BA76",
"#X c #D6BB7B",
"$X c #C1A475",
"%X c #E4A577",
"&X c #D9935C",
"*X c #9ED441",
"=X c #9EDC47",
"-X c #A2D548",
";X c #B6CD5C",
":X c #A8DA54",
">X c #B2D75F",
",X c #9BE046",
"<X c #A2E356",
"1X c #BAD368",
"2X c #BFCD69",
"3X c #A9E663",
"4X c #B9E57B",
"5X c #C1CE6D",
"6X c #C1C463",
"7X c #C4CD71",
"8X c #C9CA77",
"9X c #D6C27B",
"0X c #C7D176",
"qX c #EC9A82",
"wX c #F29D80",
"eX c #DABB82",
"rX c #EBA883",
"tX c #E9B08E",
"yX c #F0B6A9",
"uX c #BCE683",
"iX c #D9C281",
"pX c #E4C589",
"aX c #E9C391",
"sX c #EAD6BC",
"dX c #F6D4CD",
"fX c #EEEFDC",
"gX c #EFFCE8",
"hX c #FFEEF5",
"jX c #FFF5FB",
"kX c #FEFEFE",
"lX c #FBF6F4",
"zX c #F6F2EA",
/* pixels */
"P.P.P.P.P.P.P.T.U.U.P.U.U.P.P.U.P.E.P.P.P.P.P.T.U.P.Q.G.!.T.L.K.L.L.L.T.P.U.U.U.P.P.P.T.U.U.P.P.U.U.P.P.P.P.P.P.P.P.P.P.P.U.U.U.",
"P.P.T.P.P.P.P.U.P.P.P.P.T.U.P.P.P.P.P.P.P.P.P.P.U.P.Q.F.!.E.R.W.E.R.R.T.P.P.T.U.P.U.P.U.P.P.P.P.U.T.U.P.P.P.P.P.U.U.P.P.P.P.P.T.",
"P.P.U.U.U.P.P.P.P.P.P.P.U.P.P.P.P.P.U.P.P.P.U.P.U.E.K.1.fXgXgXsXgXgXlX4XH.U.P.P.P.P.P.P.P.P.U.P.P.P.P.P.P.P.P.P.T.P.P.P.P.P.P.U.",
"U.P.P.U.P.P.P.P.P.U.P.P.P.P.P.P.P.P.P.P.P.P.P.P.T.E.K.:.hXjXjXa.dXkXkXuXI.U.P.P.P.P.P.P.P.P.P.P.P.P.P.P.P.P.P.R.U.P.P.U.P.P.P.P.",
"P.P.U.P.P.P.U.U.P.U.P.P.P.T.U.U.P.P.P.P.P.P.Y.Y.P.R.K.:.jXqXZ Z Z r.jXuXI.E.U.T.P.P.T.U.P.Y.U.U.U.P.U.U.T.U.P.P.U.U.P.P.P.P.P.P.",
"P.P.P.U.P.P.U.T.P.P.P.P.P.U.P.P.P.P.P.P.P.P.P.Y.P.R.J.:.hXkXa.V A dXkXuXI.E.U.U.Y.P.U.U.P.P.P.T.U.P.P.P.P.P.P.P.T.U.P.P.P.U.U.U.",
"P.U.P.U.P.U.P.P.P.P.P.P.P.P.P.P.P.P.P.P.Y.P.Y.Y.P.P.L.:.hXzX=.qX=.yXkX4XH.R.U.U.P.P.P.P.P.P.P.P.T.P.U.P.P.U.P.P.P.P.U.P.P.P.T.U.",
"P.P.P.T.P.P.P.P.U.P.P.P.P.P.P.R.R.R.E.P.P.P.E.R.R.R.L.:.jXzXyXjXdXdXkXuXH.R.R.T.P.P.P.U.P.E.E.E.U.U.P.P.P.P.P.P.P.P.P.P.P.P.P.P.",
"U.P.P.P.U.U.P.P.T.U.P.P.P.P.U.L.J.J.P.E.Y.Y.E.J.J.J.J.T *X3X3X:X:X3X<XU.J.J.J.J.P.P.P.P.E.J.J.J.P.R.U.P.P.P.U.U.P.U.P.P.P.P.P.P.",
"T.U.P.P.P.T.U.P.P.U.P.P.R.P.K.*X0X7X-XK.E.Y.K.>X7X5X2X&X2XR.I.L.H.L.;X2X7X1X5X5XW.P.R.K.E.5X7X7X*XK.R.P.P.P.T.U.P.P.P.P.P.P.P.P.",
"U.P.P.P.P.P.P.P.P.P.U.P.T.U.~.D.=.a.1XJ.R.P.E.tXr.,.,.<.oX1XH.T.T.E.rX,.,.,.-.XX:XJ.E.K.-XqX=.u.D.P.U.P.P.P.P.U.P.P.P.P.U.U.P.P.",
"P.U.P.P.U.P.P.P.P.P.P.P.P.P.~.C.C r.1XJ.R.L.E.OX~ R R B t.1XJ.U.L.=X XC R ~ C _.:XH.E.L.=X}.R C b.~.U.P.P.P.P.P.P.P.P.R.T.U.P.P.",
"P.P.P.P.P.P.P.U.P.P.P.U.P.U.T.C.C r.1XK.E.T.(.OX` Q ` R i.>XH.L.L.W. X~ _ _ R }.:XH.T.K.-X{.W W C.~.P.P.P.P.P.P.P.P.P.P.P.P.U.P.",
"P.P.U.P.P.U.P.P.P.P.U.U.P.U.T.C.E r.1XJ.P.K.~.rX^ ! ( E i.>XJ.T.J.W.%X! | ( E }.:XJ.L.H.,X|.E / Z.~.P.P.P.P.P.P.P.P.P.P.P.P.P.P.",
"U.T.P.P.U.U.P.P.P.P.P.T.P.R.^.d.$ U aX#X+X+XiX].< < 5 : 3.aX@X+X+XiX'., < 5 : 5.pX@X+X@XpXw.: > f.^.P.P.P.P.U.U.U.P.T.P.P.U.P.P.",
"U.U.P.P.T.P.P.Y.P.P.P.P.P.E.~.b.B K } ;.s I ;.[ J l < J J *.{ s P *.' K p 6 K K { *.s ' *._ K q s./.L.P.T.U.U.P.P.P.U.U.U.P.P.P.",
"P.P.U.U.T.P.P.P.P.P.P.P.P.U.~.b.L K H L < h L J Q l < Q J G G : b G J Q a 7 Q J G D = m G J ` 4 s./.P.Y.U.U.U.P.P.P.U.U.T.P.P.P.",
"P.P.P.P.U.P.P.U.P.P.P.P.L.L.^.d.> = * 1 = , < % < , : 5 * * 1 - < , @ < , : < & = 1 = < : @ 1 : g.^.P.P.U.P.T.P.P.P.U.U.P.P.P.P.",
"P.P.P.P.P.P.P.P.P.P.P.P.P.U.T.C.o.l i X.( ) ! 1 ( ) ) X.p l X.(  .Q 6 ) ) ( ..0 v ..)  .D 7 ../ Z.T.U.P.P.P.P.P.P.P.P.U.U.P.P.P.",
"P.U.P.P.U.P.P.P.P.P.P.P.P.L.E.v.z 2 < x l c x * l c l x , 6 x l l t & l l x m , w v x l w ; z h b.T.P.P.P.P.P.P.P.P.P.P.U.P.P.P.",
"P.P.P.U.U.P.P.U.P.P.P.P.P.P.^.v.4 e q w &           & w q q e & 6 w e w <           o 0 e q w $ s./.L.P.P.P.P.P.P.P.P.P.U.T.P.P.",
"P.P.P.T.U.T.P.P.P.P.P.P.P.P.P.Z.o... .O.e           e O. ...X.7 Q X. .O.D           +  .X. .#.z s./.L.P.P.P.P.P.P.P.P.T.U.U.P.P.",
"P.P.U.U.U.P.P.P.P.P.P.P.P.P.^.d.2 7 7 0 +           % 0 7 7 7 + 5 7 7 7 ,           . 7 2 7 0 # s./.P.P.P.P.P.P.P.P.U.U.P.P.P.P.",
"P.U.P.P.P.P.P.P.P.P.P.P.P.P.^.v.M 7 < m v X         : D < 7 v v v k = c m <         o v i - v b b.~.P.P.P.P.P.P.P.P.U.U.P.P.P.P.",
"P.P.U.U.P.U.P.P.P.U.U.T.P.U.T.C.$.k t  .^ +         7 X.w k  .^ ) J < (  .7         X ^ D 6 ) ^ Z.T.L.P.U.U.P.P.P.P.P.P.P.P.P.U.",
"P.P.T.U.P.P.P.P.P.U.P.P.P.P.^.f.: * * < *           X 1 * = < * , , @ < , .         . < : & < $ g.^.L.P.T.U.U.U.U.U.P.P.P.P.U.U.",
"P.U.P.P.P.P.U.T.P.P.P.P.Y.Y.~.b.W ! _ ^ 7           7 ^ ! Q ! < m ! ~ | c           X Q Q Q ( r s./.L.P.P.P.P.P.U.T.P.P.P.P.U.T.",
"P.P.P.P.P.P.P.P.P.P.P.U.P.P.^.b.M D m D ,           < D m m D - x D D D i           X v F F H 2 s./.L.P.P.P.P.P.U.U.P.P.P.P.P.P.",
"P.P.P.P.P.P.P.P.P.P.P.P.P.P.^.d.2 * @ 2 1 .         + 7 * * 7 < 1 < + 1 7 +         . 6 , % 7 > d.^.U.U.P.P.P.P.U.U.P.P.P.P.P.P.",
"P.P.P.P.P.U.R.E.U.P.P.P.U.L.T.Z.+.x j +.) +   . .   7 %.p c #.) X.! 6 ..O.e         + X.J 0 X.o.Z.T.U.U.P.T.P.P.U.U.U.T.P.P.U.P.",
"P.P.P.P.P.P.K.K.U.T.U.P.K.P.).z.r > = y t o         & h = , i i t e @ w t #         o t 7 & t 4 d.~.H.T.U.U.P.L.K.L.L.P.P.P.U.U.",
"P.R.P.L.W.#XeX;XK.R.R.L.5X#X#X$X7.q.U y * e l 8.0.9.9.7.q.S t & e a 9.8.7.9.0.0.S j & r n 9.8.7.$X9X#XW.P.T.K.=XiX@X#X*XK.T.U.U.",
"P.P.P.T.B.` u.8XJ.T.P.P.#X=.[ *.@._._.o.e D @..X>.>.>.{ |.i.o.8 W &..X{ >.>.}  X2./ 6 / &..X{ >.{ ] XX=XK.R.K.>X}.] *.B.U.U.U.U.",
"P.P.P.T.B.C =.7XJ.P.P.P.#X[ ~ Q L t.3.> & , 8 '.Q R ~ B i.U : & : 9 [.~ ~ Q C _.g , % , f `.L Q Q R |.=XK.Y.H.:X_.R ~ N.T.R.T.U.",
"P.P.R.T.N.E ,.7XJ.U.L.K.#X] ! ` E p.y.b D m m oX| ` | ~ _.-.b H M I |.~ ` ` E _.Y M D M Y }.~ | Q ~ |.=XH.U.I.:X_.R ! V.T.U.U.U.",
"T.U.R.T.V.B -.0XT.W.W.(.eX' G Q N y.}.| { } }  XK J Q G y._.| { } >. XG J Q N `.p.| { | <.|.G J K G |.<XW.W.E.3X`.N W V.T.U.L.U.",
"U.P.L.E.c.: d qX%X].].%X[.8 : & : g .X|.'.`..X'.< ; * : U wX|.'.`..X6.: = * : 3..X{.'.{..X5.: ; ; : 5.%X%X].OXrX3.: @ k.^.L.T.U.",
"P.P.U.~.S./ ^ ! o.w x o.! ) J 6 ) ^ ^  .0 m ) ! ) F 7 ..! ^ ) 2 H ) | ..x w ..| ^ ( < Q / ! ..p j ..! ) ~ < / / ^ ..w h./.L.U.U.",
"U.P.U.~.m.z c c v , 0 v c c i * c c x c = w v c c w - c c c x * p x x b 7 < v c x l * j c c v 1 6 b c c k * l x x v > h.E.R.T.P.",
"P.P.P.^.c.0 , & e 0 7 0 + 6 0 0 0 = * e 7 0 7 + 7 0 0 e * = e 0 0 6 + 0 0 0 q % , e 0 0 < @ 0 0 7 e % < e 7 q , @ e 7 n.^.L.P.P.",
"P.P.Y.T.A.O.m t O. .....7 ^ X. .+.c j O. ...) 7  ... .+.u c O. .X.| 6 X... .#.t D O. .X.J 0 O. . .O.7 Q @. .#.m t O.$.S.T.Y.P.T.",
"P.P.Y.E.n.0 < @ e 0 0 0 + 6 0 0 q - * q 0 0 7 + 7 e 0 e * , w e e 7 % 0 0 0 q @ , e e e < @ e 0 0 e @ < e 0 q , & q 0 n.E.Y.U.U.",
"P.U.U.T.M.z x x c < 7 c x c i * x x x c - e c x c w = v x e       . q c 0 , v x x l # j x x c 1 6 c x x j * l x x c : h.^.P.Y.P.",
"U.T.U.T.N./ ( ( X.w c  .( ) J 6 ) ( ( ..0 F  .(  .m 7  .1   .         0 x w ..( ) ( 5 ~ ) ( ..a j ..^ ) ! < ^ ) ( X.w h./.P.P.P.",
"R.P.P.^.k.> , = 5 * = < = , : % < : = < @ = < = < = & *                 + * 5 - , , + , , = < * * < = , , @ < , - < # j.^.U.U.U.",
"P.P.U.T.N.! l 8 ~ K K Q , F Q Q ! i q ! K Q H : J K Q *                 * Q ~ 7 l ! Q Q v < ! K K Q 1 v Q K ! k 7 ! W V.T.U.P.Y.",
"P.P.R.T.M.L u 1 H H D H , v H D J w 7 K D G F - m J j .                   y Q < u J H H z , H D D H , l H H J u 1 J B V.T.P.P.P.",
"P.P.T.E.c.> < < 6 & = 6 , 5 : + 6 < < 1 % - 1 , 1 ,                       % 2 , < < + < < < 2 * * 2 < < < + < < , 6 @ j.^.P.P.P.",
"P.P.U.T.S.$. .) O.t v X.) X.Q 2 X. .) O.0 D X.) ..K                       p O.)  . .1 ^  .) @.j l O.)  .| 1  . .) O.r h./.P.U.P.",
"P.P.U.T.m.y u u j - < j j u e & y i y j * 7 j j u e                       : j i y i % t u j k , , j p p t & i a p j = j.E.E.P.P.",
"P.P.U.E.n.r 1 * i t t t % 0 t t i < - i t t q % w u ,                     = j * 2 t i i 7 & i t t t & 7 t t i < * i t n.E.P.E.P.",
"P.P.P.~.S.@.F w O. . ...7 ` X.) O.x j +. ...) 6 ) O.u                     i %.e F O.) X.J 0 O. .) O.7 K X.) O.m w O. .N.~.U.P.P.",
"P.P.P.E.n.1 - @ 7 1 6 6 + < 1 < 7 = & 7 5 2 1 + < 7 &                     & 7 @ - 6 < 7 , + 8 1 6 6 + , 7 < 7 = @ 7 < c.^.L.P.P.",
"P.P.P.T.M.M m m D 6 e D m D l - m m m m < y D m m l                       7 D D F v = c F F D 7 0 D m m c = m m m m 1 h./.L.P.P.",
"P.P.R.T.N.! ! Q ( e h ( Q ^ D < ! Q ~ ( 6 v ( Q ! D                       w ( Q ~ Q , K ! ~ ( t i ( Q ! J < Q Q ! ) 0 h.^.L.P.P.",
"P.P.P.^.k.: = * < = = < & , , * < = ; < * - , & , , o                     + < * - < * , = * < = = < & , , * < = * < # k.^.U.P.P.",
"P.T.U.T.N.) c 0 ) ! ( ( 5 J ( | ) k i ) ! ( Q < Q ) i                     t X.7 v ) ! ) D 6 ) ! ! ) 6 D ) ! ) c 0 ) ^ N.T.R.U.U.",
"P.U.U.T.M.m w , m v v b * l v v m 7 1 m v v x * x F 9                     1 D : w m v v i - v v v v = p v v m e < m b M.E.T.P.P.",
"P.P.U.^.c.2 7 6 7 & - 0 7 7 < + 7 7 7 8 % , 7 7 7 5                       & 0 6 8 7 + 1 7 6 0 * * 0 7 7 6 + 7 7 6 0 @ j.^.P.P.P.",
"U.U.U.T.N.o. . .+.i v O. .X.Q 7 X. . .%.q H O. .X.Q                       a O..... .1 ( .. .O.l l O.) X.( 6 .... .#.r h./.P.P.P.",
"U.P.L.E.c.q q q w * , w q w 7 % q q w w & < w q e 7                       = w e q q % 0 q q t ; - w e w 7 % e w e t # j./.L.P.P.",
"U.T.U.~.m.z 0 = x l l k * t l l z 5 < l l l j & p x 6                     , b = 7 l l l q * l l l l * w l l l 7 , l k M.T.U.P.U.",
"P.P.U.T.N.X.m e X.( ( ) 6 Q ) ( @.l i X.( ) | 8 | X.t                     t %.0 v ..( ..H 7 ..( ( ..7 L  .( X.v q X./ B.T.U.P.P.",
"P.P.P.^.k.- ; O 5 , 5 - O - , , 5 & % 5 , , - O - 5 %   . . .     .   .   % 5 % ; 5 , , ; % 5 - , , O = - 5 , & % 5 , k.E.U.P.P."
};
