/* XPM */
static char *result[] = {
/* columns rows colors chars-per-pixel */
"64 64 253 2 ",
"   c #0A0000",
".  c #180606",
"X  c #250605",
"o  c #2A1214",
"O  c #342029",
"+  c #4C0304",
"@  c #690304",
"#  c #790404",
"$  c #6F120A",
"%  c #583018",
"&  c #782703",
"*  c #72350F",
"=  c #553626",
"-  c #4A2F28",
";  c #6E3128",
":  c #6C1929",
">  c #3F603A",
",  c #784419",
"<  c #765819",
"1  c #704510",
"2  c #5B443C",
"3  c #725030",
"4  c #736E2D",
"5  c #5A6317",
"6  c #0F294D",
"7  c #012D69",
"8  c #03346C",
"9  c #022D79",
"0  c #013373",
"q  c #01357A",
"w  c #063A79",
"e  c #2A3D7A",
"r  c #51387E",
"t  c #396C4C",
"y  c #164D6F",
"u  c #3B7169",
"i  c #325464",
"p  c #6F5952",
"a  c #4B536C",
"s  c #655C63",
"d  c #7B7776",
"f  c #726B6A",
"g  c #56695C",
"h  c #8C0003",
"j  c #830204",
"k  c #9B0105",
"l  c #960408",
"z  c #8A090E",
"x  c #A50104",
"c  c #A90207",
"v  c #B4010A",
"b  c #B9010A",
"n  c #B41518",
"m  c #862F0A",
"M  c #8E102F",
"N  c #90342C",
"B  c #AF3E35",
"V  c #B01D20",
"C  c #C8000C",
"Z  c #DB0008",
"A  c #D30111",
"S  c #DC0113",
"D  c #CC0313",
"F  c #E6000C",
"G  c #EB0115",
"H  c #E60115",
"J  c #F4011B",
"K  c #FD011D",
"L  c #F30114",
"P  c #F3131F",
"I  c #E72A1F",
"U  c #FE0321",
"Y  c #FD0B25",
"T  c #EF182A",
"R  c #E13522",
"E  c #D12229",
"W  c #8A4918",
"Q  c #8E6C1C",
"!  c #854A26",
"~  c #8B542D",
"^  c #885637",
"/  c #975C39",
"(  c #965031",
")  c #A84F2F",
"_  c #97653C",
"`  c #897434",
"'  c #A66639",
"]  c #B17536",
"[  c #AE6519",
"{  c #C36E25",
"}  c #D54D23",
"|  c #8C234B",
" . c #D03A4A",
".. c #905C45",
"X. c #9B6C44",
"o. c #956744",
"O. c #9D754C",
"+. c #956D51",
"@. c #A56944",
"#. c #AB7548",
"$. c #BA7D4D",
"%. c #A57953",
"&. c #B77A55",
"*. c #AD6C52",
"=. c #8F7274",
"-. c #AF786C",
";. c #B04245",
":. c #C27851",
">. c #CE5760",
",. c #EB5862",
"<. c #D06966",
"1. c #E6767A",
"2. c #D2504E",
"3. c #77931E",
"4. c #59953A",
"5. c #749329",
"6. c #77A828",
"7. c #7AB829",
"8. c #77AC33",
"9. c #7FC22A",
"0. c #7ECF36",
"q. c #738E4C",
"w. c #6BB753",
"e. c #679272",
"r. c #76C04A",
"t. c #92912B",
"y. c #B68728",
"u. c #87B92C",
"i. c #8FB02C",
"p. c #A4AA2B",
"a. c #ADAB1D",
"s. c #CE9A07",
"d. c #85C928",
"f. c #99C62D",
"g. c #8AD525",
"h. c #8ED62E",
"j. c #8FD82F",
"k. c #86D42B",
"l. c #90D62F",
"z. c #92DC2E",
"x. c #97DF27",
"c. c #8ED631",
"v. c #8EDA30",
"b. c #86D239",
"n. c #91DA31",
"m. c #94D535",
"M. c #90C935",
"N. c #96E52A",
"B. c #8AE430",
"V. c #8BE933",
"C. c #91E130",
"Z. c #91EB33",
"A. c #8AE42E",
"S. c #BBDB35",
"D. c #F9F306",
"F. c #AD894C",
"G. c #91AF49",
"H. c #838F73",
"J. c #B4886B",
"K. c #92A873",
"L. c #9F9E47",
"P. c #C58457",
"I. c #C68967",
"U. c #CA9476",
"Y. c #D28F71",
"T. c #E6967A",
"R. c #EE947C",
"E. c #CBB071",
"W. c #9AD253",
"Q. c #A7D44B",
"!. c #ABD670",
"~. c #013987",
"^. c #003D96",
"/. c #1E3BA0",
"(. c #024395",
"). c #02469A",
"_. c #054899",
"`. c #10478F",
"'. c #385688",
"]. c #2C6D99",
"[. c #014AA2",
"{. c #004CAB",
"}. c #0548A4",
"|. c #0053B4",
" X c #0054BB",
".X c #0158BD",
"XX c #0B52BD",
"oX c #1257AF",
"OX c #2351AD",
"+X c #1267BA",
"@X c #20709C",
"#X c #4E6989",
"$X c #606A8B",
"%X c #0056C2",
"&X c #015BC4",
"*X c #005DCB",
"=X c #0357C7",
"-X c #005AD5",
";X c #0161CD",
":X c #0063D4",
">X c #0066DA",
",X c #006BDC",
"<X c #006DE2",
"1X c #0172E3",
"2X c #877F8B",
"3X c #E86F83",
"4X c #3D8C90",
"5X c #4183A2",
"6X c #989797",
"7X c #88878B",
"8X c #A7A898",
"9X c #A29FA4",
"0X c #A4A4A7",
"qX c #B6B6B8",
"wX c #B4B3B0",
"eX c #A29A93",
"rX c #D29382",
"tX c #E69D83",
"yX c #E28D93",
"uX c #D9A988",
"iX c #E9A787",
"pX c #F1AD8E",
"aX c #FAB28D",
"sX c #FAB898",
"dX c #EAAD92",
"fX c #E6A1AD",
"gX c #D2B5A8",
"hX c #B2D386",
"jX c #FCC29D",
"kX c #EBCB96",
"lX c #D1CEB1",
"zX c #FCC8A3",
"xX c #FDD5AB",
"cX c #FDDCB5",
"vX c #E8DBB4",
"bX c #FDE5BA",
"nX c #D3D599",
"mX c #BFBEC0",
"MX c #8DBACD",
"NX c #C0BFC0",
"BX c #ACC6D7",
"VX c #D8D7D8",
"CX c #CACBC8",
"ZX c #F1D5CA",
"AX c #D8EAC5",
"SX c #FEEDC2",
"DX c #FEE7C0",
"FX c #FFF6C9",
"GX c #E1E7DA",
"HX c #D9D7E2",
"JX c #E8E9E8",
"KX c #F5F5F7",
"LX c #EFECF1",
/* pixels */
"j.j.j.j.j.j.j.v.j.j.j.j.j.j.j.j.j.j.j.j.j.j.j.j.j.j.j.j.j.j.j.j.j.j.j.j.j.j.j.j.j.j.j.j.j.j.l.j.j.j.j.j.j.j.j.j.j.j.j.j.v.j.j.j.",
"j.j.j.j.j.j.j.j.j.j.j.l.j.j.j.j.j.j.j.j.j.j.j.j.j.j.j.j.j.j.j.j.j.j.j.j.j.j.j.l.j.j.j.j.j.j.j.j.j.j.j.j.j.j.j.j.j.j.j.j.l.j.j.j.",
"j.j.j.j.j.j.j.j.j.j.j.j.j.j.j.j.j.j.j.j.j.j.j.j.j.j.j.j.j.j.j.j.j.j.j.j.j.j.j.j.j.j.j.j.j.j.j.j.j.j.j.j.j.j.j.j.j.j.j.j.j.j.j.j.",
"j.j.j.j.j.l.j.j.j.j.j.j.j.j.j.j.j.j.j.j.j.j.l.v.j.j.j.j.j.j.j.j.j.j.j.j.j.j.j.j.j.j.j.j.j.j.j.j.j.j.j.j.j.j.j.j.j.j.j.j.j.j.j.j.",
"j.j.j.j.j.j.j.j.j.j.j.j.j.l.j.j.j.j.j.j.j.j.j.j.j.l.j.j.j.j.j.j.j.j.j.j.j.j.j.j.j.j.j.j.j.j.j.j.j.j.j.c.l.j.j.j.j.j.j.j.j.j.j.j.",
"j.j.v.l.j.j.j.j.l.j.j.j.j.c.j.j.j.j.j.j.j.j.j.l.j.l.j.j.l.l.j.j.j.j.j.j.j.j.j.j.j.j.j.j.j.j.j.j.j.j.j.j.j.j.l.j.j.j.j.j.j.j.j.j.",
"j.j.j.j.j.j.j.j.j.j.j.j.j.j.j.j.v.j.j.j.z.v.z.l.l.B.V.V.V.A.j.j.j.l.j.j.j.j.j.j.j.l.j.j.j.j.j.j.j.j.j.j.j.j.j.j.j.j.j.j.j.l.j.j.",
"j.j.j.j.j.j.j.j.j.j.j.j.j.j.j.j.j.j.j.j.j.j.l.A.v.p.y.[ [ p.g.A.j.j.j.j.j.j.j.j.j.j.j.j.j.j.l.h.j.j.j.j.j.j.j.j.j.j.j.j.v.j.j.j.",
"j.j.j.j.j.j.j.v.j.j.j.j.j.v.l.j.j.j.j.j.j.l.V.p.R J J T 3XyX*.i.C.z.l.z.j.j.j.j.j.j.j.j.j.j.j.j.j.j.v.j.j.j.j.j.j.j.j.j.j.j.j.j.",
"j.j.j.j.j.j.j.l.j.j.j.j.j.j.j.j.j.j.j.j.l.A.y.K U K G ZXfX>. .>.t.A.j.j.h.j.j.j.j.j.j.j.j.j.j.j.j.j.l.j.j.j.j.j.j.j.j.j.j.v.j.j.",
"l.j.j.j.j.j.j.j.j.j.j.j.j.j.j.j.j.j.j.l.B.] K K U J G GX,.>.U.<.) d.V.B.N.j.j.j.j.j.j.j.j.j.j.j.j.j.j.j.j.j.j.j.j.j.j.j.l.j.j.j.",
"j.j.j.j.j.j.j.j.j.j.j.j.j.j.j.j.j.j.l.A.p.K K K U J F 1.1.3XZX>.n n V ) t.j.j.j.j.j.j.j.j.j.j.j.j.j.j.j.j.j.j.j.l.j.j.j.j.j.j.j.",
"j.j.j.j.j.j.j.j.j.j.v.j.j.j.j.j.j.j.j.l.I U Y Y U J G F ,.,.E c v c x x x Q C.j.j.j.j.j.j.j.j.j.j.j.j.j.j.j.j.j.j.j.l.c.j.j.j.j.",
"j.j.j.j.j.j.j.j.j.j.l.j.j.j.j.j.j.j.A.{ K Y Y Y K J J U F v x x x x k k k l u.z.j.j.j.j.j.j.j.j.j.j.j.j.j.j.l.j.j.j.j.j.j.j.j.j.",
"j.j.v.j.j.j.j.j.j.j.j.j.j.j.j.j.h.j.f.Y U Y Y J J U U S k l l l h h h h h h 6.V.j.j.j.j.j.j.j.j.j.j.j.j.j.j.j.j.j.j.j.j.j.j.j.j.",
"j.j.j.j.j.j.j.j.j.j.j.j.j.j.j.j.x.A.] K Y Y Y J J U A j N ;...( N @ # # j j u.j.j.j.j.j.j.j.j.j.j.j.j.j.j.j.j.j.j.j.j.j.j.j.j.j.",
"j.j.j.j.j.j.j.j.j.j.j.j.j.j.j.j.l.j.R K Y Y J J K A +   . = *.*.+.. + j # < k.l.j.j.j.j.j.j.j.j.j.j.j.j.j.j.j.j.j.j.j.j.j.j.j.j.",
"j.j.j.j.j.j.j.j.j.j.j.j.j.j.j.l.Z.i.Y K K J L K S N . = ..; ..Y.&...! # 1 9.n.c.j.j.j.j.j.j.j.j.j.j.j.j.j.j.j.j.j.j.j.j.j.j.j.j.",
"j.j.j.j.j.l.j.j.j.j.j.j.j.j.j.l.A.y.K K J H G A N +...I.U.rXJ.Y.Y.eX-.< 0.j.c.m.j.j.j.j.j.j.j.j.j.j.j.v.j.j.l.j.j.j.j.j.j.j.j.j.",
"l.j.j.j.j.j.v.j.l.j.j.j.j.j.j.l.A.} K J H S D ) J.rXtXtXMXBXgXtXR.f gXkXkXkXQ.v.l.j.j.v.j.j.j.j.j.j.j.l.j.j.j.j.j.j.j.j.j.j.j.l.",
"j.j.j.j.j.j.j.j.j.j.j.j.j.j.l.V.[ K J G S v ; kXDXDXcXlX4X5XHXcXsXxXFXbXzXsXiXm.j.v.n.j.g.n.v.j.j.j.j.j.j.j.j.j.j.j.j.j.j.j.j.j.",
"j.j.j.j.j.j.j.j.j.j.j.j.j.l.C.i.J J G F A z & kXSXDXcXlX6 6 MXZXcXSXSXxXjXdXtXL.g.n.v.n.A.x.j.n.j.j.j.j.j.j.j.j.j.j.j.j.j.j.j.j.",
"j.j.j.j.j.j.j.j.j.j.j.j.j.l.B.y.J L Z Z x m & ! kXSXbXcX#Xy BXZXxXxXxXzXpXiXtXL.G.wXAXGXlXhXm.g.v.j.j.j.j.j.j.j.j.j.l.j.j.v.j.j.",
"l.v.j.j.j.j.j.j.j.j.j.j.j.l.B.p.F R R.T.) & m $ ..FXSX+.2 a J.J.rXzXsXpXtXiXU.q.7XqXLXVXLXJXCX!.j.j.j.j.j.j.j.j.j.j.j.j.j.j.j.j.",
"j.j.j.j.j.j.j.j.v.j.j.j.j.j.j.j.) sXzXjXjX) & & uXFXFXp X X X . o o.U.U.U.%.4 d 4XgXZXCXLXVXKXHXW.g.n.j.j.j.j.j.j.j.j.j.v.j.j.j.",
"j.j.j.j.j.j.j.j.j.j.j.j.j.j.c.g.Q.zXaXT.Y.pX& * bXFXFXvX2 o X .     o o . . 5 f s d 0XVXVXJXGXqXeXg.n.j.j.j.j.j.j.j.j.j.l.j.j.j.",
"j.j.j.j.j.j.j.j.l.j.j.j.j.j.j.h.Q.zXjXiXR.zXuXU.FXbXFXSXbXjX+.o - - . O O p 8.g f =.f 9XwXCXqX9X8X9.n.l.j.j.j.j.j.j.j.j.j.j.j.j.",
"j.j.j.j.l.j.j.j.j.j.j.j.j.j.j.v.g.kXxXjXxXbXbXbXbXcXbXxXzXjXpXp =.f O p J.F.4 s 7X6Xd d 6X9X0X0XhX9.n.j.j.j.v.j.j.j.j.j.j.j.j.j.",
"j.j.v.j.j.j.j.j.j.j.j.j.j.j.j.l.A.m.kXcXSXSXxXjXzXzXzXzXsXsXpX2   X . ..:.5.8.s f 7Xd 6XCXCX0X0X6X9.A.g.l.j.j.j.j.j.j.j.j.j.j.j.",
"j.j.l.j.j.j.j.j.j.j.j.j.v.j.j.j.n.g.m.E.nXU.; *.jXjXaXaXpXiXiXT.; : N I.L.7.v.i.f f d 6XCXmX0XwXK.k.n.z.j.j.j.j.j.j.j.j.j.j.j.j.",
"j.j.j.j.j.j.j.j.j.j.j.j.j.j.j.j.l.v.B.d.t.W l j 2.<.-.J.Y.R.T.aXdXY.U.J.7.A.V.Z.u.s s f 7X6X6X9X6Xd.z.n.j.j.j.j.j.j.l.v.j.j.j.j.",
"j.j.j.j.j.j.j.j.j.j.j.j.j.l.j.l.B.f.} P K K L L Z C M _.'.=.<.T.dXtX%.; W Q t.t.d.2 s 6XqXwX0X9XK.d.n.j.j.j.j.j.j.j.j.j.j.j.j.j.",
"j.j.j.j.j.j.j.j.j.j.j.j.l.l.l.B.p.P K U J J G S S A F | =X|.'.B B N $ o O # # # # @ ; -.eXeX=.( 6.z.l.z.j.j.j.j.j.j.j.j.j.j.j.j.",
"j.j.j.l.j.j.j.j.j.j.j.j.j.l.B.f.P K U J J F S S A D D A r -X-X/.M l z $ 6 6 @ # @ @ + k v x x m d.m.l.n.j.j.j.j.j.j.j.j.j.j.c.j.",
"j.j.j.j.j.j.j.j.j.j.j.j.n.j.j.R K K K H S D C C C C D D n =X4XQ.H.OXoX_._.^.g s.@ @ @ l b b b Q B.l.l.j.j.j.j.j.j.j.j.j.j.j.l.j.",
"v.j.j.j.j.j.j.j.j.j.j.j.h.A.{ K Y K G D C v v v v v b b S /.S.D.D.#X&X.X|._.(.W.s.@ # j x v c 6.n.j.j.j.j.j.j.j.j.j.j.j.j.j.j.j.",
"j.j.j.j.j.l.v.j.j.j.j.g.W.E.Y K K J S b x x k h l k c C | <XH.D.a.].{.|.|.[.^.~.3 # # h k x W k.l.j.j.j.j.j.j.j.j.j.j.j.j.j.j.j.",
"j.j.j.j.j.j.j.j.j.j.n.g.AXfXJ Y K H C v k < t.4 l l x n +X,X=X].@X^._..X|.[.).(.0 z h l l W 7.n.j.j.j.j.j.j.j.j.j.j.l.j.j.j.j.j.",
"j.j.j.j.j.j.j.j.j.z.l.h.AXKX1.F F C v x < d.Z.w.M C M OX,X>X;X X}.).|.|.|.[.)._.~.t i.6.7.k.n.n.j.j.j.j.j.j.j.j.j.j.j.j.j.j.j.j.",
"j.l.j.j.j.j.j.j.j.n.g.W.JXKXKXfX .n l M 8.j.l.0.OXr OX>X:X>X:X;X&X%X|.|.|.{.).~.~.y g.C.B.C.n.C.C.C.j.j.j.j.j.j.j.j.j.j.j.j.j.j.",
"j.j.j.j.j.j.l.j.j.j.g.nXKXLXGXJXCXwX=.d 8.l.c.N.4X-X;X:X>X>X:X;X%X.X:X,X,X>X.X_.(.8 8.A.M.p.t.` t.u.C.z.j.j.j.v.j.j.j.j.j.j.j.j.",
"j.j.j.j.j.v.j.j.j.j.m.KXKXKXJXVXwX6X7Xf d.l.j.x.w.&X;X;X:X:X;X&X-X<X1X1X1X,X>X;X|.^.4.f.] *.@.) ! * t.A.n.j.j.j.j.j.j.j.j.j.j.j.",
"j.j.j.j.j.j.j.j.v.g.!.KXKXKXKXJXCXeX=.s 7.z.h.j.b.+X*X;X;X;X*X:X1X1X1X1X1X,X>X;X&X%X@X] P.I.&.%.~ * $ 5 v.j.j.j.j.j.c.j.j.j.j.j.",
"j.j.j.j.j.j.j.j.j.g.!.LXKXKXJXJXVXNX6Xf q.z.h.z.b.+X-X;X;X;X:X,X,X,X,X,X,X,X,X:X:X-X#X:.Y.U.I./ , ~ ~ ; 3.C.v.z.j.j.l.j.j.j.j.j.",
"j.j.l.v.j.j.j.j.j.j.m.JXKXJXJXHXVXmX6X$Xq.k.m.z.w.&X-X;X;X:X:X>X>X:X:X>X>X>X,X>X>X:X+.:.U.U.X.! F.@.X.o.4 C.n.l.j.v.j.j.j.j.j.j.",
"j.j.j.j.j.j.j.j.j.c.h.!.LXLXJXVXmX0X9X6Xq.k.c.x.w.-X;X&X;X;X:X;X;X*X&X*X:X>X,X,X<X+X' $.I.&., P.@.X.O.X.o.u.n.n.j.j.j.j.j.j.j.l.",
"j.j.j.j.j.j.j.j.j.j.h.h.hXHXHXCX6X$X6X6X6.l.c.x.w.*X&X*X;X:X;X*X;X.X.X&X:X:X>X>X<X#X] *.&./ @.#.o.O.O.O.o.7.z.j.j.j.j.j.j.j.j.j.",
"j.j.j.j.j.j.j.j.j.j.j.M.M.!.mX0X7X7X8.8.h.l.j.z.r.*X&X*X;X*X*X;X&X X|.&X&X;X;X>X>Xp ' *.X.^ $.X.O.%.%.O.` 9.n.j.l.j.j.j.j.j.j.j.",
"j.j.j.j.j.j.j.j.j.j.j.v.n.g.W.6XH.q.g.A.j.A.C.v.N.5X-X;X*X&X&X&X.X|.[.|..X&X*X>X;X..' o.~ ' #.o.F.F.O.+.4 h.n.j.j.j.j.j.j.j.j.j.",
"j.j.j.j.j.j.j.j.j.j.j.j.j.n.c.M.d.g.C.j.f.t.< < 4 u &X&X&X X.X|.|.|._.(. X.X&X-XOX' _ / , #.X.X.+.O.+.o.6.j.n.v.v.j.j.j.j.j.j.j.",
"j.j.j.j.j.v.j.j.j.j.j.j.j.j.c.v.z.l.z.l.$./ / r ^.[.[.|.|.|.{.{.[.).(.(.(. X X&X'.' _ ^ ~ #._ X.X.X._ 5.k.n.j.j.l.j.j.j.j.j.j.j.",
"j.j.j.j.j.j.j.j.l.j.j.j.j.j.j.j.l.l.A.L.@.&.f %X&X&X[.q (.).[._.[._.(.`.q y oX%Xa Q _ , ! ^ ^ 3 3 3 5.0.n.j.j.j.j.j.j.j.j.j.j.j.",
"j.j.j.j.j.j.j.j.j.j.j.j.j.j.j.j.z.l.z.F.*.J.oX*X;X*X.X8 7 7 0 q w 0 8 0 0 6.w.|.a ) ~ * 3 % = % % 4 k.n.v.j.j.j.j.j.j.j.j.j.j.j.",
"j.j.j.j.j.j.l.j.j.j.j.j.j.v.j.j.l.l.m.] :.=.*X&X&X&X.X~.7 7 7 7 8 0 0 9 t g.N.e.e W , 3 @.X.@.O.@.4 k.l.j.j.j.j.j.j.j.j.j.j.l.v.",
"l.j.j.j.j.j.j.j.j.j.j.j.j.j.j.j.l.l.N.` :.#X%X.X.X.X.X).0 8 0 0 0 0 ~.y 7.l.l.c.u , * _ O.O.%.O.` 8.z.j.j.j.j.j.j.j.j.j.j.j.j.j.",
"v.j.j.j.j.j.j.j.j.j.j.j.j.j.j.j.l.z.L.@.P.'.%X X|.|.|.).0 0 0 0 0 q w 4.z.j.j.l.g.4 % / X.O.O.o.5.v.j.j.j.l.j.j.j.j.j.j.j.j.j.j.",
"j.j.j.j.j.j.j.j.j.j.j.j.j.j.j.l.j.f.@.&.I.a  X{.[.).(.(.q 0 0 9 ~.w 4.g.l.j.j.j.l.n.3.4 / o.4 6.h.n.j.j.j.j.j.j.j.j.j.j.j.j.j.j.",
"j.j.j.j.j.j.j.j.j.j.j.j.j.j.j.j.A.F.@.I.Y.s [._.(.q 0 q 9 9 9 y t 6.l.v.j.j.j.j.j.j.C.h.7.6.d.v.v.j.j.j.j.j.j.j.l.j.j.j.j.j.j.j.",
"j.j.j.j.j.j.j.j.j.j.j.j.j.j.j.j.m.] @.I.Y._ `.(.0 0 8 8 i t 4.7.d.n.v.j.j.j.j.j.j.j.c.l.n.n.n.v.j.j.j.j.j.j.j.j.j.j.j.j.j.j.j.j.",
"j.j.j.j.j.j.j.j.j.j.j.c.j.j.j.j.m._ @.I.I.' = 8 0 7 > 7.g.g.z.z.m.c.j.j.j.j.j.j.j.j.j.j.l.c.v.n.j.j.j.j.j.j.j.j.v.j.j.j.j.j.l.j.",
"j.j.j.j.j.j.j.j.j.j.j.j.j.j.j.j.A.` / $.&.[ 1 * - % 3.A.c.c.c.j.j.j.l.j.j.j.j.j.j.j.j.j.j.j.j.j.j.j.j.j.j.v.l.j.j.j.j.j.j.j.j.j.",
"j.j.j.j.j.j.j.j.j.j.j.j.j.j.j.j.j.i.! ' @.( * * & 1 7.A.h.j.l.j.j.j.j.j.j.j.j.j.j.j.j.j.j.j.j.j.j.j.j.j.j.j.j.j.j.j.j.l.j.j.j.j.",
"j.j.j.j.j.j.j.j.j.j.j.j.j.j.j.j.j.C.4 W ~ W * * 1 5.j.j.j.j.j.j.j.j.j.j.j.j.j.j.j.j.j.j.j.j.j.j.j.j.j.j.j.j.j.j.j.j.j.j.j.j.v.j.",
"j.j.j.j.j.j.j.j.j.j.j.j.j.j.j.j.j.g.x.t.< 1 1 5 3.k.j.h.j.j.j.j.j.j.j.j.j.j.j.j.j.j.j.j.j.j.j.j.j.j.j.j.j.j.j.j.j.j.j.j.j.j.j.j."
};
