/* XPM */
static char *result[] = {
/* columns rows colors chars-per-pixel */
"64 64 131 2 ",
"   c #0D0B07",
".  c #15120B",
"X  c #1A140C",
"o  c #1C180F",
"O  c #1C1611",
"+  c #1F1A10",
"@  c #20160C",
"#  c #221A0F",
"$  c #2A1C0F",
"%  c #231A10",
"&  c #2A1D12",
"*  c #321F13",
"=  c #3B1F13",
"-  c #332214",
";  c #3E2313",
":  c #3A3424",
">  c #422413",
",  c #4B2714",
"<  c #4E2916",
"1  c #482719",
"2  c #442D1A",
"3  c #4A2D19",
"4  c #512A16",
"5  c #592E14",
"6  c #532A18",
"7  c #592E1A",
"8  c #6F330F",
"9  c #7A350B",
"0  c #7E390F",
"q  c #613217",
"w  c #6A3617",
"e  c #65331B",
"r  c #6A361C",
"t  c #67381E",
"y  c #6B381E",
"u  c #743711",
"i  c #7E3B13",
"p  c #763D1C",
"a  c #783D1A",
"s  c #4D3725",
"d  c #4F3928",
"f  c #663B22",
"g  c #6D3820",
"h  c #763D21",
"j  c #783E22",
"k  c #77401E",
"l  c #43402E",
"z  c #7C4125",
"x  c #674E32",
"c  c #705A3C",
"v  c #823B0F",
"b  c #823C11",
"n  c #864117",
"m  c #86431B",
"M  c #89471D",
"N  c #854526",
"B  c #894627",
"V  c #864827",
"C  c #8E4B27",
"Z  c #874528",
"A  c #8B4728",
"S  c #8E4B29",
"D  c #934C23",
"F  c #9C4D27",
"G  c #914B2A",
"H  c #984E2B",
"J  c #945024",
"K  c #995124",
"L  c #96512F",
"P  c #9B522D",
"I  c #965130",
"U  c #9E5631",
"Y  c #A4552D",
"T  c #A8572A",
"R  c #A5592A",
"E  c #AA592B",
"W  c #A15530",
"Q  c #A75932",
"!  c #B45B30",
"~  c #9C6235",
"^  c #AB6033",
"/  c #AA663A",
"(  c #B66136",
")  c #BE6335",
"_  c #BB673A",
"`  c #B56C3F",
"'  c #BB683A",
"]  c #C16435",
"[  c #CA6635",
"{  c #C66A3A",
"}  c #CB6A3A",
"|  c #D56F3A",
" . c #DB6B3B",
".. c #D7723F",
"X. c #DC723F",
"o. c #B56D40",
"O. c #A77445",
"+. c #AF7449",
"@. c #BD7142",
"#. c #BF7B4C",
"$. c #C97443",
"%. c #D77240",
"&. c #DE7441",
"*. c #E17643",
"=. c #E67841",
"-. c #EC7B44",
";. c #BE8E5A",
":. c #D6824F",
">. c #C28254",
",. c #DF8E58",
"<. c #E08049",
"1. c #ED864C",
"2. c #EE884E",
"3. c #F18A4E",
"4. c #ED8951",
"5. c #F38E54",
"6. c #F98F52",
"7. c #F59155",
"8. c #FF9456",
"9. c #F19358",
"0. c #FF9658",
"q. c #FF9A5A",
"w. c #EB9F67",
"e. c #F89F62",
"r. c #DDA46D",
"t. c #CCA270",
"y. c #D7AC76",
"u. c #FDA365",
"i. c #EAB57A",
"p. c #F8B77A",
"a. c #F6BC7E",
/* pixels */
"0 m E T T T T T T T T T T T T T Y Y T Y Y T Y Y Y T T Y E K 9 b v i F R R R R T W Y Y Y T T Y T T T T T T T T E T T R R T R m 9 ",
"i V 7.8.8.8.6.8.6.8.6.8.8.8.6.8.8.6.8.8.8.8.8.8.8.8.8.8.6.p.O.b M h $.0.8.0.8.8.8.8.8.8.8.8.8.8.8.8.8.8.0.8.8.8.8.0.0.0.8.u.y.m ",
"y 7 Y W W Y Y Y Y W Y W W W W W W W W W W W W W W W W W I $.*.s d , N Q W W W W W W W W W W W Q W W Y W W W W W U P Y W W Q 4.^ ",
"r 6 A A A A A A A A A G A S A G A G A G A A A G S S S G Z ) { X % , h G A A S S G A G G S S A G A A S S A A G A C C A C S G %.E ",
"y 6 G G G G G G G G G G G G G G G G G G G F D G G G G G S ] %.% & , j I G G G G I G G G H G H G G G G G H G G G G G G G G L *.E ",
"y 6 G G G G C G G G G G G G G G A G G G G G A G G G G G A ] } % & , j G G G L G G G G G G G G G G G G G G G L G G G G L A P *.E ",
"y 4 G G G G G G G G G G G G G G G G G A G G G G G G G G A ] } % & 1 j H G G G G G G G G G G G G G G G L L G G G G G G G G H *.E ",
"t 4 S G G G G G G G G G G G G G G G G G G G G A G G G G A _ } % $ 1 j I G G G G G G G G G G G G G G G G G G G G G G G G G H *.E ",
"r 6 G G G G G G G G G G A G G G G G G G G G G G G G G G S ' } % % , h G G G G G G G G G G G G G G G G G G G G G G G G G G H *.Q ",
"r 6 A A A G G G G G G G G G A G A D G G A G G G G G G G B ) | % $ , j G A G G G G G G G G G G G G G I G I G G G G G G G G I *.E ",
"r 6 G D G G G G G G G G G A G G G G G G G G G G G G G G A ] } % & 1 j H G G G G G G G G G G G G G G G G G G G I G G G G G P *.! ",
"r 6 A G G G G G G G A G G G G G G G G G G G G G G G G G B ) } % % , j H G G G G G G G G G G G G G G G G G G G G G G L G A G *.E ",
"g 6 G G G G G G G G G G G A G G G G G G G G A G G G G G A ) } % & , j H G G A G G G G G G G G G G G G G G G G G G L G G G P *.E ",
"r 6 G G G G A G G G G G G G G G G G A G G G G G A G G G A ] } % % 1 j G A G G G G G G G G G G G G G G G G G G G G G G G G G *.E ",
"r 6 A G A G G G G G G G G G G G A G G G G G G G G G G G A ) } % & 1 p H G G G G G G G G A G G G I G G G G L G G G G G G S H *.E ",
"r 6 G G G G G A G G G G G G G A G G G A G G G G G G G G A ] } % & 1 h G A G G G G G G G G G G G G G G G G G G G G G G G S P *.E ",
"g 6 G G S G G G G G G G G G G G G G G G G G G G G G G G A ] } & & , h G G G G G G G G G G G G G G G G G G G G G G G G G G H *.T ",
"r 6 G G G G G G G G G G G G G G G G G G G G G G G G G G G ] } % & , j H G G G G G G G G G G G G G G G G G G G G L G G G G H *.! ",
"t , N N N N N N N N N N Z N N N B N N N N N Z B N N N N j ! ! % % 1 r B N N N N Z Z B N N Z N N Z Z Z Z Z N N Z Z Z Z Z N A { R ",
"i < 1 , , , , , , , , , , , , , , , , , , , , , , , , , , 7 ; % % $ , , , , , , , , , , , , , < , < 1 1 , , , , 1 , , , , , r b ",
"b u $ * * * * * - - * & * * & * * & * * * * * * * * * * * & % & & & & * - & - * * * * * * & * & & & * * * * * * * * * - & 2 b b ",
"b 8   . . . . . . . . . . . # % % % O . . . . . . . . . . . X . . X . . . . . . . . . . . X % % & @ . . . . . . . . . . . & 9 b ",
"v m ` ` o.` o.o.` ` ` ` _ +.: X & O f @.o.o.` ` o.` o.o.o.o.` ` o.` ` ` ` ` ` ` ` ` ` ` @.c X & @ = o.+.o.o.o.o.` o.` o.` #.~ 9 ",
"p j 1.2.2.1.1.1.2.1.1.1.1.e.t.- % - H 5.1.2.1.1.2.2.1.2.2.2.1.1.1.2.2.2.2.3.4.2.2.4.2.1.1.a.x . * e &.4.2.2.2.2.2.2.2.2.1.9.i.D ",
"g , A B B B N B B B B B B F =.3 X > e B B B B B N B N B N B B B Z A B B B B B B B B B B m | U X * 4 N A B B B B V B N B B G X.! ",
"r 6 G G G G G G G G G G A Y =.1 O > e G G G G G G G G G G G G G G G A G G G G G G G G G A ..P X * 4 B G G G G G G G G G S G X.T ",
"r 6 S G G G G G G A G G A Y =.3 O > e G G G G G G G G G G G G G G G G G G G G G G G G G A ..P . * 6 N G G G G G G G G G G L &.E ",
"r 4 G G G G G G G G G G S T =.3 O > e H A G G G G S G G G G A G G G G G G S G S G G A G A ..I . * 6 N G G G G G G S G G G K &.E ",
"f 6 G G G G G A G G A G A Y =.1 X > e G G G G G S G G G G A G G G G G G S G G G G G G G B ..H X * 4 B G S G G G G G S G C H &.E ",
"r 6 S G G G G G G G G G A Y =.3 O ; t G G G G A G G G G G G G G A G G S G G A G G A G G A ..L . = 4 B G G G A G G G G G A F &.E ",
"y 6 S G A G G G G G G G G Y =.1 O > e G G G G G G A G G G G G A G G G G A G G G G G G G B X.L X * 6 B G G G G A G A G G C H &.E ",
"r 6 S G G G G G G G G G A Y =.1 X > e G S G G G G G G G G G G G G G G G G G G G G G G G C ..H X - 6 N G G G G G G G G G S H &.E ",
"y 4 G G G G S G G G G G A Y =.3 O > e G G G G G G G A G G A G G G G G G G G G G A G G G A | H . - 6 B G G G G G C G G G A H X.E ",
"y 6 G G A G G G G G G G A W =.3 O > e G G A G G G G G G G G G G G A A G G S G G G G G G A | H . * 6 B G G A G G G G G G G G *.E ",
"y 4 A G G G G G G G G G S W =.3 @ > e H G G G G G G G G G G S G G G G G G G G A G G G G G %.I X - 4 B G G G G G G G G G S D *.E ",
"y 4 S G S G G G G A G G A W =.3 O > e G A G G G G G G G G G G G G G G G G G G G G G G G A | I . * 6 B G G G G G G A G C S F *.E ",
"y 4 S G G G S G G G G G A Y =.3 O = e G G G G G A G G G G G G G G G G G G A G G G G G G A ..P . - 4 N G G G G A G G S G S H *.T ",
"t 4 S G S G A G S G S G A Y =.3 O > g G G G G A G G G G G G G G G G G G G G G G G G G A A ..H X = 4 B G G G G G G G G G S G *.T ",
"y 4 S S S S G G S G S G A Y =.3 O > e G A G G A G A G A G G G G A A G G G G G A G G A C A ..L . * 4 B G G G G G A G G G G G &.T ",
"t 6 G H L G L G G L G G H Q -.3 O > e H G H H H H G H G G H G G G H G H G H H G G H H F G *.U . - 4 B H G H G H H G H H G H -.E ",
"y , r h r g g g y y g y y z P ; O = 4 y p r g g g f g y g y g g r g g g f r h g g g r g r H f X $ 1 g g g g g g g g g g g g H F ",
"n q - > > > > > > ; > > ; > & % % % - > ; ; > > > ; > > > > > > > > = > > ; ; ; > ; ; > > - % & # & ; > ; > ; ; ; > ; > ; > w i ",
"v u X # % % + % % % % o # # % % % % % % % % % % % % % % % % % % % & % % % % % % % % % % % % % % # O % % % % % % % % % % % - i b ",
"b u $ - - - - - - - - - - - - - - - - - - - - - - - - - - & X & % % & - - - - - - - - - - - - - - - - - - - - - - - - - - 2 9 b ",
"0 C 7.7.5.7.7.7.7.7.5.7.7.7.7.7.7.7.7.7.7.7.7.7.7.7.7.7.7.r.l X & * @.0.7.7.7.7.7.7.7.7.9.7.7.7.7.7.7.7.7.7.7.7.7.7.7.7.7.u.;.i ",
"r e _ ' _ _ _ _ ' ' ) ' _ _ _ ' ' _ _ _ _ _ _ _ _ _ ' ' ) ,.>.X & 4 U { _ _ _ _ _ _ _ _ ' _ ' ' ' ' ' ' _ _ { _ ' ' ' _ ' ' w.R ",
"y < V N N V N N V V V V N N V V Z V V V A A A Z A Z B N N ! [ $ % 1 r S Z A Z A A A A A A A Z A A A A A A Z Z S S Z Z B Z G | E ",
"y 6 G S C S C C G S S G S S S L S S G G S S G S G S G G C ) { % & , h G S G G G G G G G G G G G G G G G G G G G G G G G G H &.E ",
"y 4 C S S S C S S C S S C C S S S S S S S L S S S V S L V ) { # % 1 z G S S L S G A L S S G G G G G G G S G G G G A G G G H &.E ",
"t 4 C S C C C C S S V C C S S C S S S S S S S S S L S S V ) } $ & ; z A S S S S G S S G S G S S G S G S S G G S G G G A A I &.Q ",
"y 6 S S C S C C C C S S V S C V S S J S S S C J S S S S C ) { # & 1 h L S I S S G S S S G G L S A G A G G G S G S G G G G H &.E ",
"y 4 S C C S S C S C C S S J S S S S V V C S V S S S S S V ) } $ % > h I S A I S I S G S G S S S G G G G A L S G G G G G G G &.E ",
"t 4 S C S S C G C S S S S C S S C S S S S S S C S S S L c ) } # & > k G S S S S V S S G S S S S G G G G G S S G G G G S A H &.Q ",
"y 4 S C S C C C S C C V S C S C C C C S V C S C J S S V M ) } # & > p L V L S S G G L S S S L S G S G G S G V L S G S G G G &.E ",
"r 6 S S G S C G C S C J C S J V S C S C C S S C V S S J V ) { # % > z G S S S G G V V G L S S S S S G G G G G S G G G G G G &.E ",
"y 6 C C C C S C S C C S S S S S C S C S S C S C S V L V V ) } # & 1 h J S S S G S L S S S S S S G S S G S G S G G S S G G G &.E ",
"y 4 C S C S C G S C S C S S C S C S C S C S C S S C C S N ) { & & > h G S S S S S S S S S S S L S L S S G S S G S G S L V H &.E ",
"y 4 C S S S C C S S S C C S S S C S S C C S S S C S S C B ) } # $ , h J S S S S S S C V L S S S S S S S S G G S S S S S V I &.Q ",
"y 6 C D C G S S J S S S C S C C S C S S S S C C S S A S V ) { # % > p G S C C V S C C C V S S S S V S S S S S S S G S L S H &.E ",
"y 4 C C S C C C S S S C S C S S S S S D C S S A S C C D N ) { % & , h G C S S S S C C S S S S S L S S S S L S S G G S S S G &.E ",
"y 4 C S S S S G C S C C S S C S C S C S C G C C G S C S V ) { # $ 1 h S S S C S C C C S S C C C V S S S C S S C S S S S S H &.E ",
"t < C S D C S C S S C C S S S S S D G S S S C C C C C G N ) { X O > h J S C S V C C C C C S C C S S S V S S C S S S S S V L %.E ",
"p 1 < < 3 4 4 4 4 4 < 4 < < 4 3 4 3 4 4 4 < < 4 4 4 3 4 < q N k k 5 > 4 4 4 3 4 3 4 < 4 3 3 < 4 4 < s 3 < 4 4 < 6 3 < 4 4 < h m ",
"v p e q q q q q q q q q q q q w q q q q q q q q q q q q q w i v v b w q q q q q q q q q q q q q q q q q q q q q e q q q q e a b "
};
